# xmcd
# Track frame offsets:
# 150
# 14120
# 26420
# 42937
# 53362
# 69052
# 81060
# 95627
# 107725
# 121792
#
# Disc length: 1855 seconds
# Revision: 0
# Processed by: cddbd v1.4PL0 Copyright (c) Steve Scherf et al.
# Submitted via: VisiTrax 2.9.5.180 - For more info visit www.synapsa.com
#
DISCID=71073d0a
DTITLE=Antonio Rosales - Time's running out
DYEAR=1900
DGENRE=
TTITLE0=Time's running out
TTITLE1=Rumors and lies
TTITLE2=All I think of
TTITLE3=Luck be a lady
TTITLE4=Spanish ees
TTITLE5=For the life of me
TTITLE6=She's in that cowboy way
TTITLE7=Rhonda
TTITLE8=It's my guess
TTITLE9=Millie make some chili
EXTD=
EXTT0=
EXTT1=
EXTT2=
EXTT3=
EXTT4=
EXTT5=
EXTT6=
EXTT7=
EXTT8=
EXTT9=
PLAYORDER=
